<svg version="1.1" preserveAspectRatio="none" xmlns="http://www.w3.org/2000/svg" width="500" height="500" viewBox="0 0 500 500"><rect width="100%" height="100%" fill="#192537" fill-opacity="1"/><svg viewBox="507.082 671.613 517.3474 206.6664" width="333" height="133.02456183214605" x="83.5px" y="183.4877px" xmlns="http://www.w3.org/2000/svg" xmlns:xlink="http://www.w3.org/1999/xlink" preserveAspectRatio="none"><defs></defs><style>.companyName {fill:#E9E9E9;fill-opacity:1;}.icon1 {fill:#B09E80;fill-opacity:0.98;}.icon2 {fill:#E9E9E9;fill-opacity:1;}.icon3 {fill:#716551;fill-opacity:1;}.icon3-str {stroke:#716551;stroke-opacity:1;}.shapeStroke-str {stroke:#E9E9E9;stroke-opacity:1;}.text {fill:#B09E80;fill-opacity:1;}</style><g opacity="1" transform="rotate(0 507.082 861.4794)">
<svg width="517.3474" height="16.8" x="507.082" y="861.4794" version="1.1" preserveAspectRatio="none" viewBox="1.28 -30.36 976.8 31.72">
  <g transform="matrix(1 0 0 1 0 0)" class="text"><path id="id-6izo4zJp29" d="M22.32 0L19.32-7.60L8.20-7.60L5.12 0L1.28 0L13.92-30.12L14.16-30.12L26.80 0L22.32 0ZM9.60-10.96L18-10.96L13.88-21.52L9.60-10.96Z M68.92-29.84L68.96-29.84L68.96 0L65.12 0L65.12-18.72L54.48-3.64L54.40-3.64L43.96-18.20L43.96 0L40.20 0L40.20-29.84L40.24-29.84L54.48-9.68L68.92-29.84Z M103.44 0L100.44-7.60L89.32-7.60L86.24 0L82.40 0L95.04-30.12L95.28-30.12L107.92 0L103.44 0ZM90.72-10.96L99.12-10.96L95-21.52L90.72-10.96Z M125.88-3.76L143.48-3.76L143.48 0L119.20 0L126-10.12Q134.16-22.36 136.16-25.20L136.16-25.20L124.12-25.20Q122.84-25.20 121.84-25.86Q120.84-26.52 120.84-27.64L120.84-27.64L120.84-30.36L124.44-30.36L124.44-29.84Q124.44-29.20 124.68-29.06Q124.92-28.92 125.72-28.92L125.72-28.92L143.04-28.92L125.88-3.76Z M157.84-28.92L161.72-28.92L161.72 0L157.84 0L157.84-28.92Z M199.36-28.92L203.24-28.92L203.24 0.96L203.12 0.96L181.88-20.60L181.96 0L178.04 0L178.04-29.80L178.24-29.80L199.44-8L199.36-28.92Z M242.24-2.48Q240.92-1.44 238.10-0.56Q235.28 0.32 232.88 0.32L232.88 0.32Q228.36 0.32 224.92-1.54Q221.48-3.40 219.62-6.64Q217.76-9.88 217.76-13.92L217.76-13.92Q217.76-18.64 219.76-22.10Q221.76-25.56 225.16-27.40Q228.56-29.24 232.60-29.24L232.60-29.24Q235.04-29.24 237.20-28.66Q239.36-28.08 241.08-27.12L241.08-27.12L239.80-23.56Q238.52-24.28 236.58-24.82Q234.64-25.36 233.08-25.36L233.08-25.36Q229.72-25.36 227.14-24Q224.56-22.64 223.16-20.12Q221.76-17.60 221.76-14.24L221.76-14.24Q221.76-11.12 223.16-8.68Q224.56-6.24 227.12-4.90Q229.68-3.56 232.96-3.56L232.96-3.56Q234.48-3.56 235.92-3.86Q237.36-4.16 238.32-4.72L238.32-4.72L238.32-10.44L232.56-10.44L232.56-14.16L242.24-14.16L242.24-2.48Z M312.84-28.80L301.44 1.28L294.68-16L287.28 1.36L275.76-28.80L280.28-28.80L287.76-7.76L292.76-20.88L289.68-28.80L293.52-28.80L301.56-8.20L308.68-28.80L312.84-28.80Z M326.60-28.92L345.40-28.92L345.40-25.20L330.48-25.20L330.48-16.40L343.80-16.40L343.80-12.68L330.48-12.68L330.48-3.76L345.96-3.76L345.96 0L326.60 0L326.60-28.92Z M373.60-15Q376.08-14.04 377.52-12.26Q378.96-10.48 378.96-8.12L378.96-8.12Q378.96-5.36 377.62-3.54Q376.28-1.72 374.10-0.86Q371.92 0 369.32 0L369.32 0L360.72 0L360.72-28.92L368.20-28.92Q372.64-28.92 375.08-27.10Q377.52-25.28 377.52-21.64L377.52-21.64Q377.52-19.36 376.50-17.66Q375.48-15.96 373.60-15L373.60-15ZM364.60-25.20L364.60-16.28L369-16.28Q371.24-16.28 372.38-17.56Q373.52-18.84 373.52-20.84L373.52-20.84Q373.52-23.04 372.16-24.12Q370.80-25.20 368.36-25.20L368.36-25.20L364.60-25.20ZM369.16-3.60Q371.68-3.60 373.32-4.74Q374.96-5.88 374.96-8.08L374.96-8.08Q374.96-10.36 373.18-11.44Q371.40-12.52 368.88-12.52L368.88-12.52L364.60-12.52L364.60-3.60L369.16-3.60Z M414.12 0L414.12-28.92L422.04-28.92Q427.44-28.92 430.98-26.78Q434.52-24.64 436.14-21.26Q437.76-17.88 437.76-14.12L437.76-14.12Q437.76-9.92 435.80-6.70Q433.84-3.48 430.56-1.74Q427.28 0 423.44 0L423.44 0L414.12 0ZM418-3.76L422.68-3.76Q425.88-3.76 428.40-5.02Q430.92-6.28 432.34-8.68Q433.76-11.08 433.76-14.40L433.76-14.40Q433.76-17.80 432.28-20.24Q430.80-22.68 428.34-23.94Q425.88-25.20 423.04-25.20L423.04-25.20L418-25.20L418-3.76Z M452.28-28.92L471.08-28.92L471.08-25.20L456.16-25.20L456.16-16.40L469.48-16.40L469.48-12.68L456.16-12.68L456.16-3.76L471.64-3.76L471.64 0L452.28 0L452.28-28.92Z M504.84-28.92L509.40-28.92L496.64 1.36L483.88-28.92L488.48-28.92L496.80-8.08L504.84-28.92Z M523.16-28.92L541.96-28.92L541.96-25.20L527.04-25.20L527.04-16.40L540.36-16.40L540.36-12.68L527.04-12.68L527.04-3.76L542.52-3.76L542.52 0L523.16 0L523.16-28.92Z M557.28-28.92L561.16-28.92L561.16-3.76L575.88-3.76L575.88 0L557.28 0L557.28-28.92Z M587.84-14.44Q587.84-18.40 589.84-21.80Q591.84-25.20 595.22-27.22Q598.60-29.24 602.60-29.24L602.60-29.24Q606.56-29.24 609.96-27.22Q613.36-25.20 615.38-21.80Q617.40-18.40 617.40-14.44L617.40-14.44Q617.40-10.44 615.40-7.04Q613.40-3.64 609.98-1.66Q606.56 0.32 602.60 0.32L602.60 0.32Q598.60 0.32 595.20-1.64Q591.80-3.60 589.82-6.98Q587.84-10.36 587.84-14.44L587.84-14.44ZM591.84-14.40Q591.84-11.44 593.28-8.92Q594.72-6.40 597.22-4.92Q599.72-3.44 602.68-3.44L602.68-3.44Q605.64-3.44 608.10-4.90Q610.56-6.36 611.98-8.90Q613.40-11.44 613.40-14.44L613.40-14.44Q613.40-17.44 611.96-20Q610.52-22.56 608.04-24.04Q605.56-25.52 602.60-25.52L602.60-25.52Q599.64-25.52 597.16-24.02Q594.68-22.52 593.26-19.96Q591.84-17.40 591.84-14.40L591.84-14.40Z M639.68-28.92Q644.40-28.92 647.06-26.56Q649.72-24.20 649.72-19.96L649.72-19.96Q649.72-17.52 648.74-15.40Q647.76-13.28 645.58-11.96Q643.40-10.64 640.08-10.64L640.08-10.64L635.80-10.64L635.80 0L631.92 0L631.92-28.92L639.68-28.92ZM640.08-14.40Q642.16-14.40 643.46-15.28Q644.76-16.16 645.32-17.42Q645.88-18.68 645.88-19.88L645.88-19.88Q645.88-21.96 644.52-23.58Q643.16-25.20 640.28-25.20L640.28-25.20L635.80-25.20L635.80-14.40L640.08-14.40Z M663.72-28.92L682.52-28.92L682.52-25.20L667.60-25.20L667.60-16.40L680.92-16.40L680.92-12.68L667.60-12.68L667.60-3.76L683.08-3.76L683.08 0L663.72 0L663.72-28.92Z M718.28 0L713.76 0L706.96-10.68Q706.64-10.64 706-10.64L706-10.64L701.72-10.64L701.72 0L697.84 0L697.84-28.92L705.56-28.92Q708.52-28.92 710.84-27.88Q713.16-26.84 714.48-24.82Q715.80-22.80 715.80-19.96L715.80-19.96Q715.80-17.28 714.62-15.04Q713.44-12.80 711-11.64L711-11.64L718.28 0ZM705.92-14.40Q709.04-14.40 710.42-16.04Q711.80-17.68 711.80-19.80L711.80-19.80Q711.80-21.08 711.22-22.32Q710.64-23.56 709.38-24.38Q708.12-25.20 706.20-25.20L706.20-25.20L701.72-25.20L701.72-14.40L705.92-14.40Z M752.88-28.92L770.04-28.92L770.04-25.20L756.76-25.20L756.76-16L768.40-16L768.40-12.28L756.76-12.28L756.76 0L752.88 0L752.88-28.92Z M782.04-14.44Q782.04-18.40 784.04-21.80Q786.04-25.20 789.42-27.22Q792.80-29.24 796.80-29.24L796.80-29.24Q800.76-29.24 804.16-27.22Q807.56-25.20 809.58-21.80Q811.60-18.40 811.60-14.44L811.60-14.44Q811.60-10.44 809.60-7.04Q807.60-3.64 804.18-1.66Q800.76 0.32 796.80 0.32L796.80 0.32Q792.80 0.32 789.40-1.64Q786.00-3.60 784.02-6.98Q782.04-10.36 782.04-14.44L782.04-14.44ZM786.04-14.40Q786.04-11.44 787.48-8.92Q788.92-6.40 791.42-4.92Q793.92-3.44 796.88-3.44L796.88-3.44Q799.84-3.44 802.30-4.90Q804.76-6.36 806.18-8.90Q807.60-11.44 807.60-14.44L807.60-14.44Q807.60-17.44 806.16-20Q804.72-22.56 802.24-24.04Q799.76-25.52 796.80-25.52L796.80-25.52Q793.84-25.52 791.36-24.02Q788.88-22.52 787.46-19.96Q786.04-17.40 786.04-14.40L786.04-14.40Z M846.56 0L842.04 0L835.24-10.68Q834.92-10.64 834.28-10.64L834.28-10.64L830.00-10.64L830.00 0L826.12 0L826.12-28.92L833.84-28.92Q836.80-28.92 839.12-27.88Q841.44-26.84 842.76-24.82Q844.08-22.80 844.08-19.96L844.08-19.96Q844.08-17.28 842.90-15.04Q841.72-12.80 839.28-11.64L839.28-11.64L846.56 0ZM834.20-14.40Q837.32-14.40 838.70-16.04Q840.08-17.68 840.08-19.80L840.08-19.80Q840.08-21.08 839.50-22.32Q838.92-23.56 837.66-24.38Q836.40-25.20 834.48-25.20L834.48-25.20L830.00-25.20L830.00-14.40L834.20-14.40Z M898.80-28.92L903.56-28.92L892.72-9.64L892.72 0L888.84 0L888.84-9.64L878.12-28.92L882.92-28.92L890.88-14.04L898.80-28.92Z M912.68-14.44Q912.68-18.40 914.68-21.80Q916.68-25.20 920.06-27.22Q923.44-29.24 927.44-29.24L927.44-29.24Q931.40-29.24 934.80-27.22Q938.20-25.20 940.22-21.80Q942.24-18.40 942.24-14.44L942.24-14.44Q942.24-10.44 940.24-7.04Q938.24-3.64 934.82-1.66Q931.40 0.32 927.44 0.32L927.44 0.32Q923.44 0.32 920.04-1.64Q916.64-3.60 914.66-6.98Q912.68-10.36 912.68-14.44L912.68-14.44ZM916.68-14.40Q916.68-11.44 918.12-8.92Q919.56-6.40 922.06-4.92Q924.56-3.44 927.52-3.44L927.52-3.44Q930.48-3.44 932.94-4.90Q935.40-6.36 936.82-8.90Q938.24-11.44 938.24-14.44L938.24-14.44Q938.24-17.44 936.80-20Q935.36-22.56 932.88-24.04Q930.40-25.52 927.44-25.52L927.44-25.52Q924.48-25.52 922.00-24.02Q919.52-22.52 918.10-19.96Q916.68-17.40 916.68-14.40L916.68-14.40Z M960.28-10.24Q960.28-8.32 961.20-6.78Q962.12-5.24 963.70-4.34Q965.28-3.44 967.20-3.44L967.20-3.44Q969.20-3.44 970.82-4.32Q972.44-5.20 973.36-6.76Q974.28-8.32 974.28-10.24L974.28-10.24L974.28-28.92L978.08-28.92L978.08-10.12Q978.08-7.04 976.64-4.66Q975.20-2.28 972.72-0.98Q970.24 0.32 967.20 0.32L967.20 0.32Q964.20 0.32 961.72-0.98Q959.24-2.28 957.82-4.66Q956.40-7.04 956.40-10.12L956.40-10.12L956.40-28.92L960.28-28.92L960.28-10.24Z"/></g>
</svg>
</g><g opacity="1" transform="rotate(0 750.7557 671.613)">
<svg width="30" height="23.7328" x="750.7557" y="671.613" version="1.1" preserveAspectRatio="none" viewBox="25.9679012298584 30.976905822753903 48.06419372558594 38.023284912109375">
  <g transform="matrix(1 0 0 1 0 0)" class="icon1"><title>Artboard 265</title><path d="M32,69H68a2,2,0,0,0,2-1.67l4-24a2,2,0,0,0-3-2.07L58.93,48.17l-7.1-16a2,2,0,0,0-3.66,0l-7.1,16L29,41.26a2,2,0,0,0-3,2.07l4,24A2,2,0,0,0,32,69Zm9-16.26a2,2,0,0,0,1.61.16,2,2,0,0,0,1.21-1.09L50,37.92l6.17,13.89a2,2,0,0,0,1.21,1.09A2,2,0,0,0,59,52.74l10.34-5.91L66.31,65H33.69l-3-18.17Z"></path></g>
</svg>
</g><g opacity="1" transform="rotate(0 507.082 687.4794)">
<svg width="228.6737" height="2" x="507.082" y="687.4794" version="1.1" preserveAspectRatio="none" viewBox="0 0 228.6737 2">
  <defs><rect x="0" y="0" width="228.6737" height="2" rx="0px" ry="0px" id="id-sr1BtIxl1715237218328"></rect></defs><use class="icon1 shapeStroke-str" style="stroke-width:0;" xlink:href="#id-sr1BtIxl1715237218328"></use>
</svg>
</g><g opacity="1" transform="rotate(0 795.7557 687.4794)">
<svg width="228.6737" height="2" x="795.7557" y="687.4794" version="1.1" preserveAspectRatio="none" viewBox="0 0 228.6737 2">
  <defs><rect x="0" y="0" width="228.6737" height="2" rx="0px" ry="0px" id="id-R9TavoXY1715237218328"></rect></defs><use class="icon1 shapeStroke-str" style="stroke-width:0;" xlink:href="#id-R9TavoXY1715237218328"></use>
</svg>
</g><g opacity="1" transform="rotate(0 586.6792 713.4794)">
<svg width="358.153" height="120" x="586.6792" y="713.4794" version="1.1" preserveAspectRatio="none" viewBox="-0.4 -28.56 85.24000000000001 28.56">
  <g transform="matrix(1 0 0 1 0 0)" class="companyName"><path id="id-D6z1nYkh3" d="M28.60-0.40L28.60-0.40L28.92-0.40L28.92 0L19.92 0L19.92-0.40L20.28-0.40Q21.12-0.40 21.54-0.94Q21.96-1.48 21.96-1.96Q21.96-2.44 21.80-2.92L21.80-2.92L19.24-9.72L8.44-9.72L5.76-2.88Q5.60-2.40 5.60-1.94Q5.60-1.48 6.02-0.94Q6.44-0.40 7.28-0.40L7.28-0.40L7.64-0.40L7.64 0L-0.40 0L-0.40-0.40L-0.04-0.40Q0.96-0.40 1.92-1.04Q2.88-1.68 3.48-2.92L3.48-2.92L12.52-24.44Q14-27.68 14-28.56L14-28.56L14.36-28.56L25.08-2.92Q25.64-1.68 26.60-1.04Q27.56-0.40 28.60-0.40ZM13.96-23.76L8.92-10.92L18.76-10.92L13.96-23.76Z M42.64 0L42.64 0L32.88 0L32.92-0.40L33.40-0.40Q34.44-0.40 35.18-1.12Q35.92-1.84 35.96-2.88L35.96-2.88L35.96-25.12Q35.96-26.16 35.20-26.88Q34.44-27.60 33.40-27.60L33.40-27.60L32.92-27.60L32.88-28L40.84-28Q44.96-28 47.24-26.18Q49.52-24.36 49.52-21.32L49.52-21.32Q49.52-18.92 48.24-17.34Q46.96-15.76 45.12-15.24L45.12-15.24Q48.28-14.76 50.12-12.64Q51.96-10.52 51.96-7.30Q51.96-4.08 49.50-2.04Q47.04 0 42.64 0ZM38.56-26.72L38.56-1.44L42.48-1.44Q42.52-1.44 42.56-1.44L42.56-1.44Q45.60-1.44 47.28-3.10Q48.96-4.76 48.96-7.80L48.96-7.80Q48.96-9.52 48.38-10.82Q47.80-12.12 46.92-12.88L46.92-12.88Q44.60-14.80 39.96-14.80L39.96-14.80Q39.96-14.80 39.92-14.80L39.92-14.80L39.92-15.16Q39.96-15.16 40.30-15.16Q40.64-15.16 41.28-15.24Q41.92-15.32 42.72-15.52Q43.52-15.72 44.16-16.16Q44.80-16.60 45.36-17.20L45.36-17.20Q46.52-18.52 46.52-21.14Q46.52-23.76 45.02-25.24Q43.52-26.72 40.68-26.72L40.68-26.72L38.56-26.72Z M84.52-0.40L84.52-0.40L84.84-0.40L84.84 0L75.84 0L75.84-0.40L76.20-0.40Q77.04-0.40 77.46-0.94Q77.88-1.48 77.88-1.96Q77.88-2.44 77.72-2.92L77.72-2.92L75.16-9.72L64.36-9.72L61.68-2.88Q61.52-2.40 61.52-1.94Q61.52-1.48 61.94-0.94Q62.36-0.40 63.20-0.40L63.20-0.40L63.56-0.40L63.56 0L55.52 0L55.52-0.40L55.88-0.40Q56.88-0.40 57.84-1.04Q58.80-1.68 59.40-2.92L59.40-2.92L68.44-24.44Q69.92-27.68 69.92-28.56L69.92-28.56L70.28-28.56L81-2.92Q81.56-1.68 82.52-1.04Q83.48-0.40 84.52-0.40ZM69.88-23.76L64.84-10.92L74.68-10.92L69.88-23.76Z"/></g>
</svg>
</g></svg></svg>